<svg xmlns="http://www.w3.org/2000/svg" xmlns:xlink="http://www.w3.org/1999/xlink" width="500" zoomAndPan="magnify" viewBox="0 0 375 374.999991" height="500" preserveAspectRatio="xMidYMid meet" version="1.0"><defs><g/><clipPath id="38a51d65cd"><path d="M 139.890625 152 L 285 152 L 285 235.722656 L 139.890625 235.722656 Z M 139.890625 152 " clip-rule="nonzero"/></clipPath><clipPath id="0d35230b2e"><path d="M 37.5 187.5 L 187.5 187.5 L 187.5 220.5 L 37.5 220.5 Z M 37.5 187.5 " clip-rule="nonzero"/></clipPath><clipPath id="aac2458605"><path d="M 92.253906 150.222656 L 150 150.222656 L 150 184 L 92.253906 184 Z M 92.253906 150.222656 " clip-rule="nonzero"/></clipPath><clipPath id="dda310204b"><path d="M 167 176 L 175.503906 176 L 175.503906 184 L 167 184 Z M 167 176 " clip-rule="nonzero"/></clipPath><clipPath id="daa3e01ea2"><path d="M 166 168 L 175.503906 168 L 175.503906 178 L 166 178 Z M 166 168 " clip-rule="nonzero"/></clipPath></defs><rect x="-37.5" width="450" fill="#ffffff" y="-37.499999" height="449.999989" fill-opacity="1"/><rect x="-37.5" width="450" fill="#000000" y="-37.499999" height="449.999989" fill-opacity="1"/><path fill="#c51b1b" d="M 267.507812 223.921875 C 264.628906 226.480469 260.832031 227.761719 256.976562 227.703125 L 157.296875 225.917969 L 252.457031 224.371094 C 256.945312 224.3125 261.417969 223.617188 265.65625 222.136719 C 267.421875 221.523438 269.195312 220.757812 270.734375 219.8125 C 270.734375 219.8125 269.851562 221.839844 267.507812 223.921875 " fill-opacity="1" fill-rule="nonzero"/><path fill="#c51b1b" d="M 253.558594 177.902344 C 251.953125 171.71875 245.007812 164.429688 245.007812 164.429688 C 229.550781 158.816406 199.050781 158.4375 199.050781 158.4375 C 213.9375 156.375 240.3125 157.101562 247.296875 163.167969 C 252.28125 167.5 257.113281 175.523438 259.46875 179.765625 C 260.097656 180.898438 259.15625 182.253906 257.878906 182.058594 C 224.382812 176.980469 178.820312 177.964844 178.820312 177.964844 C 216.609375 171.933594 253.558594 177.902344 253.558594 177.902344 " fill-opacity="1" fill-rule="nonzero"/><path fill="#c51b1b" d="M 235.464844 208.589844 C 228.902344 209.429688 210.886719 210.042969 205.160156 205.878906 C 205.160156 205.878906 225.199219 207.597656 235.617188 205.195312 C 246.039062 202.789062 251.191406 218.476562 249.015625 220.996094 C 246.839844 223.515625 230.351562 222.710938 230.351562 222.710938 C 230.351562 222.710938 243.25 221.796875 245.390625 218.589844 C 247.527344 215.382812 242.03125 207.75 235.464844 208.589844 " fill-opacity="1" fill-rule="nonzero"/><path fill="#c51b1b" d="M 272.640625 193.78125 C 272.640625 193.78125 275.847656 204.621094 266.6875 207.902344 C 257.527344 211.1875 247.144531 205.535156 247.144531 205.535156 C 247.144531 205.535156 261.496094 208.285156 266.019531 203.761719 C 270.542969 199.238281 268.082031 196.664062 268.082031 196.664062 C 268.082031 196.664062 262.699219 195.347656 257.773438 199.8125 C 252.851562 204.277344 243.976562 200.039062 243.976562 200.039062 C 243.976562 200.039062 253.253906 198.667969 258.597656 194.316406 C 263.941406 189.964844 272.640625 193.78125 272.640625 193.78125 " fill-opacity="1" fill-rule="nonzero"/><g clip-path="url(#38a51d65cd)"><path fill="#c51b1b" d="M 274.652344 230.839844 C 277.273438 230.820312 279.414062 228.742188 279.503906 226.121094 C 279.84375 215.996094 279.703125 201.414062 279.703125 201.414062 C 275.953125 195.257812 271.648438 190.804688 271.648438 190.804688 C 276.152344 183.324219 262.109375 182.175781 262.109375 182.175781 C 258.214844 172.636719 249.507812 162.40625 249.507812 162.40625 C 236.371094 152.941406 196 154.125 196 154.125 C 221.535156 150.230469 246.496094 154.125 251.535156 158.703125 C 256.574219 163.285156 263.671875 177.484375 263.671875 177.484375 C 263.671875 177.484375 271.917969 180 274.894531 182.558594 C 277.871094 185.117188 276.839844 190.878906 276.839844 190.878906 C 280.960938 195.003906 282.949219 199.355469 282.949219 199.355469 L 284.628906 226.683594 C 285.390625 234.925781 280.503906 235.539062 280.503906 235.539062 L 139.890625 232.027344 L 274.652344 230.839844 " fill-opacity="1" fill-rule="nonzero"/></g><path fill="#c51b1b" d="M 277.832031 186.527344 C 277.832031 186.527344 278.558594 183.082031 275.582031 181.351562 C 275.582031 181.351562 279.246094 181.683594 282.183594 182.671875 C 285.125 183.667969 284.324219 178.4375 279.816406 178.476562 C 275.3125 178.511719 272.335938 179.238281 272.335938 179.238281 C 272.335938 179.238281 268.707031 177.257812 265.199219 176.335938 C 265.199219 176.335938 278.289062 173.167969 284.09375 175.839844 C 289.894531 178.511719 288.222656 186.910156 284.707031 187.828125 C 281.191406 188.742188 277.832031 186.527344 277.832031 186.527344 " fill-opacity="1" fill-rule="nonzero"/><g clip-path="url(#0d35230b2e)"><path fill="#ffffff" d="M 52.726562 211.46875 C 52.726562 210.453125 51.894531 209.625 50.882812 209.625 L 47.425781 209.625 C 46.414062 209.625 45.582031 210.453125 45.582031 211.46875 C 45.582031 212.480469 46.410156 213.3125 47.425781 213.3125 L 50.882812 213.3125 C 51.894531 213.3125 52.726562 212.480469 52.726562 211.46875 M 173.820312 196.96875 C 174.394531 197.539062 174.824219 198.328125 174.824219 199.832031 C 174.824219 201.734375 174 204.347656 172.710938 205.640625 C 171.597656 206.714844 169.988281 207.324219 167.90625 207.324219 L 166.976562 207.324219 L 169.699219 195.925781 L 170.558594 195.925781 C 172.140625 195.925781 173.140625 196.285156 173.820312 196.96875 Z M 157.550781 214.171875 L 166.761719 214.171875 C 171.996094 214.171875 175.796875 212.734375 178.445312 210.085938 C 181.3125 207.21875 182.675781 202.628906 182.675781 199.082031 C 182.675781 196.105469 181.855469 193.777344 180.132812 192.058594 C 178.269531 190.230469 175.332031 189.082031 170.957031 189.082031 L 163.71875 189.082031 Z M 136.90625 214.171875 L 155.472656 214.171875 L 157.085938 207.574219 L 146.152344 207.574219 L 146.90625 204.566406 L 156.832031 204.566406 L 158.300781 198.542969 L 148.375 198.542969 L 149.054688 195.675781 L 159.804688 195.675781 L 161.457031 189.082031 L 143.070312 189.082031 Z M 116.265625 214.171875 L 134.828125 214.171875 L 136.441406 207.574219 L 125.507812 207.574219 L 126.261719 204.566406 L 136.191406 204.566406 L 137.65625 198.542969 L 127.734375 198.542969 L 128.414062 195.675781 L 139.167969 195.675781 L 140.816406 189.082031 L 122.429688 189.082031 Z M 110.53125 196.070312 C 110.890625 196.429688 111.140625 196.933594 111.140625 197.722656 C 111.140625 198.546875 110.851562 199.65625 110.136719 200.375 C 109.417969 201.089844 108.308594 201.378906 107.015625 201.378906 L 106.011719 201.378906 L 107.445312 195.390625 L 108.449219 195.390625 C 109.242188 195.390625 110.0625 195.605469 110.53125 196.070312 Z M 95.152344 214.171875 L 102.898438 214.171875 L 104.582031 207.21875 L 107.019531 207.21875 C 110.890625 207.21875 114.007812 206.105469 116.085938 203.992188 C 118.019531 202.054688 118.882812 199.367188 118.882812 196.605469 C 118.882812 194.566406 118.128906 192.808594 116.875 191.554688 C 115.226562 189.902344 112.574219 189.078125 108.632812 189.078125 L 101.320312 189.078125 Z M 85.226562 214.636719 C 88.628906 214.636719 91.320312 213.597656 93.074219 211.839844 C 94.652344 210.265625 95.511719 208.148438 95.511719 205.855469 C 95.511719 202.234375 93.253906 200.445312 89.8125 198.757812 C 86.945312 197.363281 86.410156 197.039062 86.410156 196.285156 C 86.410156 195.535156 87.125 195.105469 88.234375 195.105469 C 90.421875 195.105469 92.640625 196.285156 94.148438 197.542969 L 98.304688 191.984375 C 95.832031 189.871094 92.503906 188.617188 88.773438 188.617188 C 85.402344 188.617188 82.71875 189.691406 80.925781 191.484375 C 79.382812 193.023438 78.523438 195.066406 78.523438 197.359375 C 78.523438 200.800781 80.457031 202.628906 84.328125 204.457031 C 87.054688 205.746094 87.554688 206.066406 87.554688 206.859375 C 87.554688 207.644531 86.839844 208.113281 85.761719 208.113281 C 83.578125 208.113281 81.03125 207.039062 78.667969 204.957031 L 74.691406 210.691406 C 77.449219 213.132812 81.070312 214.636719 85.226562 214.636719 Z M 164.324219 216.175781 L 166.308594 216.175781 L 166.308594 216.601562 L 164.792969 216.601562 L 164.792969 217.292969 L 166.136719 217.292969 L 166.136719 217.71875 L 164.792969 217.71875 L 164.792969 218.433594 L 166.328125 218.433594 L 166.328125 218.859375 L 164.324219 218.859375 Z M 157.136719 218.902344 C 156.9375 218.902344 156.757812 218.867188 156.59375 218.796875 C 156.425781 218.722656 156.28125 218.625 156.160156 218.503906 C 156.039062 218.378906 155.945312 218.234375 155.875 218.0625 C 155.804688 217.894531 155.769531 217.714844 155.769531 217.523438 L 155.769531 217.515625 C 155.769531 217.324219 155.804688 217.144531 155.871094 216.976562 C 155.941406 216.808594 156.035156 216.664062 156.160156 216.535156 C 156.285156 216.40625 156.429688 216.308594 156.597656 216.238281 C 156.765625 216.164062 156.953125 216.128906 157.15625 216.128906 C 157.28125 216.128906 157.390625 216.136719 157.492188 216.15625 C 157.59375 216.175781 157.6875 216.207031 157.769531 216.242188 C 157.855469 216.28125 157.933594 216.324219 158.007812 216.375 C 158.078125 216.425781 158.144531 216.480469 158.207031 216.542969 L 157.90625 216.894531 C 157.796875 216.792969 157.683594 216.710938 157.5625 216.652344 C 157.441406 216.589844 157.304688 216.558594 157.152344 216.558594 C 157.027344 216.558594 156.90625 216.582031 156.796875 216.632812 C 156.691406 216.683594 156.597656 216.75 156.515625 216.835938 C 156.4375 216.921875 156.375 217.023438 156.332031 217.136719 C 156.289062 217.253906 156.265625 217.375 156.265625 217.503906 L 156.265625 217.511719 C 156.265625 217.644531 156.289062 217.761719 156.332031 217.878906 C 156.375 217.996094 156.4375 218.097656 156.515625 218.183594 C 156.597656 218.273438 156.691406 218.339844 156.796875 218.390625 C 156.90625 218.441406 157.027344 218.464844 157.152344 218.464844 C 157.316406 218.464844 157.457031 218.433594 157.574219 218.371094 C 157.691406 218.308594 157.808594 218.222656 157.921875 218.117188 L 158.226562 218.421875 C 158.15625 218.5 158.082031 218.5625 158.007812 218.621094 C 157.933594 218.679688 157.851562 218.730469 157.765625 218.769531 C 157.679688 218.8125 157.582031 218.84375 157.480469 218.867188 C 157.375 218.894531 157.261719 218.902344 157.136719 218.902344 Z M 147.25 216.175781 L 147.6875 216.175781 L 149.121094 218.03125 L 149.121094 216.175781 L 149.585938 216.175781 L 149.585938 218.859375 L 149.191406 218.859375 L 147.714844 216.949219 L 147.714844 218.859375 L 147.25 218.859375 Z M 139.5625 216.15625 L 140 216.15625 L 141.179688 218.859375 L 140.683594 218.859375 L 140.410156 218.210938 L 139.140625 218.210938 L 138.867188 218.859375 L 138.382812 218.859375 Z M 140.238281 217.792969 L 139.773438 216.71875 L 139.316406 217.792969 Z M 129.675781 216.175781 L 130.175781 216.175781 L 130.992188 217.441406 L 131.808594 216.175781 L 132.3125 216.175781 L 132.3125 218.859375 L 131.84375 218.859375 L 131.84375 216.933594 L 130.996094 218.199219 L 130.980469 218.199219 L 130.140625 216.941406 L 130.140625 218.859375 L 129.675781 218.859375 Z M 121.292969 216.175781 L 122.488281 216.175781 C 122.65625 216.175781 122.808594 216.199219 122.9375 216.246094 C 123.066406 216.292969 123.179688 216.359375 123.261719 216.441406 C 123.335938 216.519531 123.390625 216.601562 123.429688 216.699219 C 123.46875 216.796875 123.488281 216.902344 123.488281 217.023438 L 123.488281 217.03125 C 123.488281 217.140625 123.472656 217.238281 123.4375 217.328125 C 123.40625 217.414062 123.363281 217.492188 123.304688 217.5625 C 123.25 217.628906 123.183594 217.6875 123.101562 217.734375 C 123.027344 217.78125 122.9375 217.816406 122.847656 217.84375 L 123.570312 218.859375 L 123.011719 218.859375 L 122.351562 217.921875 L 121.757812 217.921875 L 121.757812 218.859375 L 121.292969 218.859375 Z M 122.453125 217.503906 C 122.625 217.503906 122.757812 217.464844 122.859375 217.382812 C 122.957031 217.304688 123.007812 217.195312 123.007812 217.054688 L 123.007812 217.046875 C 123.007812 216.902344 122.957031 216.792969 122.859375 216.714844 C 122.761719 216.636719 122.625 216.601562 122.449219 216.601562 L 121.761719 216.601562 L 121.761719 217.503906 Z M 113.707031 218.902344 C 113.5 218.902344 113.308594 218.867188 113.136719 218.796875 C 112.96875 218.722656 112.820312 218.625 112.699219 218.5 C 112.574219 218.375 112.476562 218.230469 112.410156 218.058594 C 112.339844 217.894531 112.304688 217.714844 112.304688 217.523438 L 112.304688 217.515625 C 112.304688 217.328125 112.339844 217.148438 112.410156 216.980469 C 112.476562 216.8125 112.574219 216.667969 112.703125 216.539062 C 112.828125 216.414062 112.972656 216.3125 113.144531 216.238281 C 113.316406 216.164062 113.503906 216.128906 113.714844 216.128906 C 113.917969 216.128906 114.109375 216.164062 114.277344 216.238281 C 114.449219 216.308594 114.597656 216.40625 114.71875 216.53125 C 114.84375 216.65625 114.9375 216.804688 115.007812 216.972656 C 115.074219 217.136719 115.109375 217.316406 115.109375 217.507812 L 115.109375 217.511719 C 115.109375 217.703125 115.074219 217.878906 115.007812 218.046875 C 114.9375 218.214844 114.84375 218.363281 114.714844 218.488281 C 114.589844 218.617188 114.441406 218.714844 114.269531 218.789062 C 114.101562 218.867188 113.914062 218.902344 113.707031 218.902344 Z M 113.714844 218.46875 C 113.84375 218.46875 113.96875 218.445312 114.078125 218.394531 C 114.1875 218.34375 114.285156 218.277344 114.363281 218.195312 C 114.441406 218.109375 114.503906 218.007812 114.546875 217.894531 C 114.59375 217.777344 114.613281 217.652344 114.613281 217.523438 L 114.613281 217.515625 C 114.613281 217.386719 114.59375 217.261719 114.546875 217.148438 C 114.503906 217.027344 114.441406 216.929688 114.363281 216.84375 C 114.28125 216.757812 114.1875 216.691406 114.074219 216.640625 C 113.964844 216.585938 113.839844 216.5625 113.707031 216.5625 C 113.578125 216.5625 113.453125 216.585938 113.34375 216.636719 C 113.234375 216.6875 113.140625 216.753906 113.058594 216.839844 C 112.984375 216.925781 112.917969 217.027344 112.875 217.140625 C 112.832031 217.257812 112.808594 217.378906 112.808594 217.507812 L 112.808594 217.515625 C 112.808594 217.648438 112.832031 217.769531 112.875 217.882812 C 112.917969 218 112.984375 218.101562 113.0625 218.1875 C 113.144531 218.273438 113.238281 218.339844 113.347656 218.394531 C 113.460938 218.445312 113.582031 218.46875 113.714844 218.46875 Z M 104.300781 216.175781 L 106.292969 216.175781 L 106.292969 216.601562 L 104.769531 216.601562 L 104.769531 217.339844 L 106.117188 217.339844 L 106.117188 217.769531 L 104.769531 217.769531 L 104.769531 218.859375 L 104.300781 218.859375 Z M 95.921875 216.175781 L 97.117188 216.175781 C 97.285156 216.175781 97.433594 216.199219 97.566406 216.246094 C 97.695312 216.292969 97.804688 216.359375 97.890625 216.441406 C 97.960938 216.519531 98.015625 216.601562 98.054688 216.699219 C 98.09375 216.796875 98.109375 216.902344 98.109375 217.023438 L 98.109375 217.03125 C 98.109375 217.140625 98.09375 217.238281 98.0625 217.328125 C 98.03125 217.414062 97.984375 217.492188 97.929688 217.5625 C 97.875 217.628906 97.808594 217.6875 97.730469 217.734375 C 97.652344 217.78125 97.566406 217.816406 97.472656 217.84375 L 98.195312 218.859375 L 97.640625 218.859375 L 96.980469 217.921875 L 96.386719 217.921875 L 96.386719 218.859375 L 95.917969 218.859375 L 95.917969 216.175781 Z M 97.078125 217.503906 C 97.25 217.503906 97.382812 217.464844 97.484375 217.382812 C 97.585938 217.304688 97.632812 217.195312 97.632812 217.054688 L 97.632812 217.046875 C 97.632812 216.902344 97.585938 216.792969 97.488281 216.714844 C 97.390625 216.636719 97.253906 216.601562 97.078125 216.601562 L 96.390625 216.601562 L 96.390625 217.503906 Z M 87.742188 216.175781 L 89.726562 216.175781 L 89.726562 216.601562 L 88.210938 216.601562 L 88.210938 217.292969 L 89.554688 217.292969 L 89.554688 217.71875 L 88.210938 217.71875 L 88.210938 218.433594 L 89.746094 218.433594 L 89.746094 218.859375 L 87.738281 218.859375 L 87.738281 216.175781 Z M 79.574219 216.175781 L 80.628906 216.175781 C 80.785156 216.175781 80.929688 216.195312 81.054688 216.238281 C 81.179688 216.28125 81.289062 216.34375 81.375 216.417969 C 81.464844 216.496094 81.53125 216.59375 81.582031 216.703125 C 81.625 216.8125 81.652344 216.933594 81.652344 217.070312 L 81.652344 217.078125 C 81.652344 217.226562 81.621094 217.359375 81.566406 217.472656 C 81.511719 217.589844 81.433594 217.683594 81.335938 217.761719 C 81.238281 217.835938 81.125 217.894531 80.996094 217.933594 C 80.863281 217.972656 80.726562 217.992188 80.574219 217.992188 L 80.042969 217.992188 L 80.042969 218.855469 L 79.574219 218.855469 Z M 80.589844 217.570312 C 80.769531 217.570312 80.910156 217.527344 81.015625 217.4375 C 81.117188 217.347656 81.171875 217.234375 81.171875 217.089844 L 81.171875 217.082031 C 81.171875 216.921875 81.117188 216.804688 81.011719 216.722656 C 80.90625 216.640625 80.765625 216.597656 80.589844 216.597656 L 80.039062 216.597656 L 80.039062 217.566406 L 80.589844 217.566406 Z M 71.394531 217 L 51.804688 217 C 50.789062 217 49.960938 217.828125 49.960938 218.84375 C 49.960938 219.859375 50.789062 220.691406 51.804688 220.691406 L 90.773438 220.691406 L 90.773438 220.6875 L 175.25 220.6875 L 175.589844 220.664062 L 175.929688 220.632812 L 176.269531 220.597656 L 176.605469 220.554688 L 176.941406 220.503906 L 177.277344 220.449219 L 177.613281 220.386719 L 177.941406 220.320312 L 178.269531 220.242188 L 178.597656 220.15625 L 178.917969 220.066406 L 179.238281 219.96875 L 179.558594 219.859375 L 179.871094 219.746094 L 180.179688 219.625 L 180.488281 219.492188 L 180.789062 219.351562 L 181.089844 219.203125 L 181.386719 219.042969 L 181.679688 218.878906 L 181.964844 218.703125 L 182.25 218.519531 L 182.527344 218.324219 L 182.800781 218.117188 L 183.070312 217.902344 L 183.335938 217.675781 L 183.59375 217.441406 L 183.851562 217.195312 L 184.066406 216.972656 L 184.277344 216.738281 L 184.480469 216.496094 L 184.679688 216.25 L 184.875 215.996094 L 185.058594 215.730469 L 185.238281 215.464844 L 185.410156 215.191406 L 185.574219 214.910156 L 185.734375 214.625 L 185.886719 214.335938 L 186.035156 214.042969 L 186.175781 213.742188 L 186.308594 213.441406 L 186.433594 213.136719 L 186.554688 212.824219 L 186.667969 212.515625 L 186.773438 212.199219 L 186.871094 211.886719 L 186.960938 211.566406 L 187.046875 211.246094 L 187.125 210.929688 L 187.257812 210.289062 L 187.3125 209.96875 L 187.359375 209.648438 L 187.402344 209.328125 L 187.4375 209.015625 L 187.460938 208.699219 L 187.480469 208.382812 L 187.492188 208.074219 L 187.496094 207.761719 L 187.488281 207.324219 L 187.476562 207.109375 L 187.464844 206.890625 L 187.425781 206.460938 L 187.402344 206.246094 L 187.371094 206.03125 L 187.34375 205.820312 L 187.304688 205.613281 L 187.261719 205.402344 L 187.214844 205.195312 L 187.167969 204.992188 L 187.050781 204.585938 L 186.984375 204.386719 L 186.914062 204.191406 L 186.835938 203.996094 L 182.96875 194.371094 C 182.515625 193.234375 181.847656 192.183594 180.914062 191.261719 C 178.308594 188.683594 174.492188 187.96875 170.957031 187.96875 L 121.550781 187.96875 L 120.496094 192.265625 L 116.234375 189.644531 C 114.015625 188.28125 111.171875 187.964844 108.628906 187.964844 L 100.445312 187.964844 L 99.699219 190.996094 L 96.140625 189.210938 C 94.078125 188.164062 91.785156 187.601562 89.449219 187.511719 C 89.375 187.503906 89.304688 187.5 89.230469 187.5 L 59.792969 187.5 C 58.777344 187.5 57.949219 188.332031 57.949219 189.34375 C 57.949219 190.359375 58.777344 191.1875 59.792969 191.1875 L 72.238281 191.1875 C 73.25 191.1875 74.082031 192.015625 74.082031 193.03125 C 74.082031 194.046875 73.25 194.875 72.238281 194.875 L 49.5 194.875 C 48.488281 194.875 47.660156 195.707031 47.660156 196.71875 C 47.660156 197.734375 48.488281 198.5625 49.5 198.5625 L 77.488281 198.5625 C 77.492188 198.613281 77.5 198.667969 77.507812 198.71875 L 77.507812 198.722656 C 77.515625 198.769531 77.523438 198.816406 77.53125 198.859375 L 77.53125 198.863281 C 77.539062 198.910156 77.550781 198.953125 77.554688 199 L 77.554688 199.003906 C 77.5625 199.046875 77.574219 199.09375 77.582031 199.136719 L 77.585938 199.144531 C 77.613281 199.277344 77.644531 199.410156 77.679688 199.539062 L 77.683594 199.546875 C 77.695312 199.589844 77.703125 199.628906 77.71875 199.671875 L 77.71875 199.675781 C 78.007812 200.671875 78.5 201.515625 79.136719 202.25 L 39.359375 202.25 C 38.34375 202.25 37.515625 203.082031 37.515625 204.09375 C 37.515625 205.109375 38.34375 205.9375 39.359375 205.9375 L 69.628906 205.9375 C 70.640625 205.9375 71.472656 206.769531 71.472656 207.777344 C 71.472656 208.792969 70.644531 209.625 69.628906 209.625 L 57.257812 209.625 C 56.242188 209.625 55.414062 210.453125 55.414062 211.464844 C 55.414062 212.480469 56.242188 213.308594 57.257812 213.308594 L 71.394531 213.308594 C 72.40625 213.308594 73.238281 214.136719 73.238281 215.152344 C 73.238281 216.171875 72.40625 217 71.394531 217 Z M 71.394531 217 " fill-opacity="1" fill-rule="evenodd"/></g><g clip-path="url(#aac2458605)"><path fill="#b71622" d="M 146.894531 150.238281 C 146.789062 150.238281 146.6875 150.238281 146.582031 150.238281 C 146.554688 150.238281 146.527344 150.238281 146.507812 150.238281 L 129.859375 150.238281 C 129.859375 150.238281 137.839844 150.84375 135.421875 151.660156 C 135.195312 151.71875 134.96875 151.777344 134.738281 151.835938 C 134.707031 151.84375 134.679688 151.851562 134.644531 151.859375 L 134.675781 151.855469 C 133.78125 152.097656 132.890625 152.367188 132.011719 152.660156 C 132.039062 152.644531 132.058594 152.632812 132.058594 152.632812 L 117.726562 152.632812 C 117.726562 152.632812 127.75 153.714844 127.640625 154.332031 C 127.640625 154.332031 127.640625 154.332031 127.640625 154.335938 C 126.246094 154.945312 124.882812 155.628906 123.550781 156.359375 L 99.308594 156.363281 C 99.308594 156.363281 118.949219 157.84375 117.714844 160.085938 C 116.8125 160.753906 115.9375 161.457031 115.082031 162.179688 L 92.253906 162.183594 C 92.253906 162.183594 108.851562 164.417969 110.566406 166.523438 C 105.9375 171.585938 102.511719 177.527344 100.886719 183.902344 L 102.070312 183.902344 C 106.707031 165.804688 126.277344 151.308594 146.339844 151.316406 C 146.445312 151.316406 146.550781 151.316406 146.652344 151.316406 C 146.652344 151.316406 149.632812 151.457031 149.679688 151.050781 C 149.773438 150.238281 146.894531 150.238281 146.894531 150.238281 Z M 146.894531 150.238281 " fill-opacity="1" fill-rule="nonzero"/></g><path fill="#e6e6e6" d="M 106.703125 176.324219 L 113.542969 178.019531 C 112.65625 179.679688 111.929688 181.414062 111.398438 183.199219 L 103.933594 183.195312 C 104.601562 180.828125 105.539062 178.53125 106.703125 176.324219 Z M 106.703125 176.324219 " fill-opacity="1" fill-rule="nonzero"/><path fill="#e6e6e6" d="M 111.960938 168.679688 L 117.730469 171.984375 C 116.347656 173.570312 115.117188 175.265625 114.082031 177.046875 L 107.238281 175.351562 C 108.5625 173 110.15625 170.765625 111.960938 168.679688 Z M 111.960938 168.679688 " fill-opacity="1" fill-rule="nonzero"/><path fill="#e6e6e6" d="M 119.085938 162.046875 L 123.28125 166.835938 C 121.558594 168.132812 119.957031 169.570312 118.507812 171.121094 L 112.730469 167.8125 C 114.644531 165.71875 116.777344 163.785156 119.085938 162.046875 Z M 119.085938 162.046875 " fill-opacity="1" fill-rule="nonzero"/><path fill="#e6e6e6" d="M 127.476562 156.988281 L 129.863281 162.863281 C 127.898438 163.792969 126.015625 164.890625 124.246094 166.136719 L 120.042969 161.34375 C 122.375 159.683594 124.867188 158.214844 127.476562 156.988281 Z M 127.476562 156.988281 " fill-opacity="1" fill-rule="nonzero"/><path fill="#e6e6e6" d="M 136.519531 153.800781 L 136.992188 160.339844 C 134.917969 160.835938 132.898438 161.519531 130.945312 162.371094 L 128.558594 156.488281 C 131.121094 155.355469 133.792969 154.449219 136.519531 153.800781 Z M 136.519531 153.800781 " fill-opacity="1" fill-rule="nonzero"/><path fill="#e6e6e6" d="M 145.746094 152.632812 L 144.238281 159.40625 C 142.179688 159.441406 140.140625 159.675781 138.128906 160.085938 L 137.652344 153.542969 C 140.3125 152.988281 143.023438 152.671875 145.746094 152.632812 Z M 145.746094 152.632812 " fill-opacity="1" fill-rule="nonzero"/><path fill="#b3b3b3" d="M 139.066406 179.886719 L 130.191406 179.886719 C 130.191406 179.886719 138.554688 180.519531 138.03125 181.472656 C 138.03125 181.472656 138.042969 181.46875 138.050781 181.464844 C 137.460938 182.933594 138.363281 183.59375 138.421875 183.632812 C 138.421875 183.632812 139.726562 184.703125 141.546875 182.625 C 143.367188 180.546875 159.632812 157.585938 159.632812 157.585938 C 159.632812 157.585938 160.832031 155.9375 161.058594 155.261719 C 161.085938 155.183594 161.132812 155.050781 161.113281 155.0625 C 161.113281 155.039062 161.019531 155.09375 160.921875 155.160156 C 160.300781 155.546875 158.964844 157.09375 158.964844 157.09375 C 158.964844 157.09375 157.003906 159.308594 154.296875 162.371094 L 144.753906 162.371094 C 144.753906 162.371094 151.425781 162.875 153.144531 163.675781 C 151.859375 165.136719 150.453125 166.730469 149.035156 168.34375 L 135.78125 168.34375 C 135.78125 168.34375 147.640625 169.238281 147.0625 170.597656 C 145.9375 171.878906 144.84375 173.132812 143.832031 174.296875 L 127.628906 174.300781 C 127.628906 174.300781 142.148438 175.394531 141.234375 177.050781 Z M 139.066406 179.886719 " fill-opacity="1" fill-rule="nonzero"/><g clip-path="url(#dda310204b)"><path fill="#ec1c24" d="M 175.328125 176.339844 L 167.730469 178.03125 C 167.878906 179.695312 167.824219 181.429688 167.558594 183.210938 L 175.023438 183.214844 C 175.414062 180.847656 175.503906 178.546875 175.328125 176.339844 Z M 175.328125 176.339844 " fill-opacity="1" fill-rule="nonzero"/></g><g clip-path="url(#daa3e01ea2)"><path fill="#ec1c24" d="M 173.480469 168.695312 L 166.238281 171.996094 C 166.914062 173.582031 167.386719 175.28125 167.625 177.058594 L 175.230469 175.367188 C 174.949219 173.015625 174.359375 170.78125 173.480469 168.695312 Z M 173.480469 168.695312 " fill-opacity="1" fill-rule="nonzero"/></g><path fill="#ec1c24" d="M 169.320312 162.0625 L 162.980469 166.847656 C 164.128906 168.144531 165.089844 169.582031 165.847656 171.132812 L 173.097656 167.828125 C 172.121094 165.734375 170.851562 163.800781 169.320312 162.0625 Z M 169.320312 162.0625 " fill-opacity="1" fill-rule="nonzero"/><path fill="#ec1c24" d="M 163.191406 156.992188 L 158.179688 162.871094 C 159.730469 163.800781 161.121094 164.902344 162.332031 166.148438 L 168.671875 161.355469 C 167.085938 159.695312 165.25 158.226562 163.191406 156.992188 Z M 163.191406 156.992188 " fill-opacity="1" fill-rule="nonzero"/><path fill="#ec1c24" d="M 158.226562 156.449219 C 158.371094 156.28125 158.90625 155.671875 159.460938 155.128906 C 158.21875 154.613281 156.925781 154.167969 155.574219 153.804688 L 152.183594 160.34375 C 152.878906 160.53125 153.546875 160.753906 154.207031 160.992188 C 156.566406 158.320312 158.226562 156.449219 158.226562 156.449219 Z M 158.226562 156.449219 " fill-opacity="1" fill-rule="nonzero"/><path fill="#ec1c24" d="M 146.867188 152.632812 L 145.351562 159.40625 C 147.390625 159.441406 149.332031 159.679688 151.15625 160.089844 L 154.550781 153.550781 C 152.140625 152.988281 149.570312 152.675781 146.867188 152.632812 Z M 146.867188 152.632812 " fill-opacity="1" fill-rule="nonzero"/><g fill="#ffffff" fill-opacity="1"><g transform="translate(185.782197, 250.677392)"><g><path d="M 2.515625 0.078125 C 2.078125 0.078125 1.679688 -0.0078125 1.328125 -0.1875 C 0.972656 -0.375 0.695312 -0.632812 0.5 -0.96875 C 0.300781 -1.300781 0.203125 -1.675781 0.203125 -2.09375 C 0.203125 -2.519531 0.300781 -2.894531 0.5 -3.21875 C 0.695312 -3.550781 0.972656 -3.8125 1.328125 -4 C 1.679688 -4.1875 2.078125 -4.28125 2.515625 -4.28125 C 2.898438 -4.28125 3.242188 -4.210938 3.546875 -4.078125 C 3.859375 -3.941406 4.113281 -3.742188 4.3125 -3.484375 L 3.5625 -2.8125 C 3.289062 -3.132812 2.960938 -3.296875 2.578125 -3.296875 C 2.347656 -3.296875 2.144531 -3.242188 1.96875 -3.140625 C 1.789062 -3.046875 1.648438 -2.90625 1.546875 -2.71875 C 1.453125 -2.539062 1.40625 -2.332031 1.40625 -2.09375 C 1.40625 -1.863281 1.453125 -1.65625 1.546875 -1.46875 C 1.648438 -1.289062 1.789062 -1.148438 1.96875 -1.046875 C 2.144531 -0.953125 2.347656 -0.90625 2.578125 -0.90625 C 2.960938 -0.90625 3.289062 -1.066406 3.5625 -1.390625 L 4.3125 -0.703125 C 4.113281 -0.453125 3.859375 -0.257812 3.546875 -0.125 C 3.242188 0.0078125 2.898438 0.078125 2.515625 0.078125 Z M 2.515625 0.078125 "/></g></g></g><g fill="#ffffff" fill-opacity="1"><g transform="translate(191.260395, 250.677392)"><g><path d="M 3.234375 -0.8125 L 1.453125 -0.8125 L 1.125 0 L -0.078125 0 L 1.765625 -4.203125 L 2.9375 -4.203125 L 4.796875 0 L 3.5625 0 Z M 2.890625 -1.6875 L 2.34375 -3.03125 L 1.8125 -1.6875 Z M 2.890625 -1.6875 "/></g></g></g><g fill="#ffffff" fill-opacity="1"><g transform="translate(197.026603, 250.677392)"><g><path d="M 2.25 -1.109375 L 1.609375 -1.109375 L 1.609375 0 L 0.421875 0 L 0.421875 -4.203125 L 2.34375 -4.203125 C 2.71875 -4.203125 3.046875 -4.140625 3.328125 -4.015625 C 3.609375 -3.890625 3.820312 -3.707031 3.96875 -3.46875 C 4.125 -3.238281 4.203125 -2.960938 4.203125 -2.640625 C 4.203125 -2.335938 4.128906 -2.070312 3.984375 -1.84375 C 3.847656 -1.625 3.648438 -1.445312 3.390625 -1.3125 L 4.296875 0 L 3.015625 0 Z M 3 -2.640625 C 3 -2.835938 2.9375 -2.988281 2.8125 -3.09375 C 2.695312 -3.207031 2.515625 -3.265625 2.265625 -3.265625 L 1.609375 -3.265625 L 1.609375 -2.03125 L 2.265625 -2.03125 C 2.515625 -2.03125 2.695312 -2.082031 2.8125 -2.1875 C 2.9375 -2.300781 3 -2.453125 3 -2.640625 Z M 3 -2.640625 "/></g></g></g><g fill="#ffffff" fill-opacity="1"><g transform="translate(202.516803, 250.677392)"><g/></g></g><g fill="#ffffff" fill-opacity="1"><g transform="translate(205.312896, 250.677392)"><g><path d="M 1.890625 0.078125 C 1.554688 0.078125 1.226562 0.0351562 0.90625 -0.046875 C 0.582031 -0.128906 0.320312 -0.238281 0.125 -0.375 L 0.515625 -1.25 C 0.703125 -1.125 0.921875 -1.023438 1.171875 -0.953125 C 1.421875 -0.878906 1.664062 -0.84375 1.90625 -0.84375 C 2.363281 -0.84375 2.59375 -0.957031 2.59375 -1.1875 C 2.59375 -1.300781 2.523438 -1.382812 2.390625 -1.4375 C 2.265625 -1.5 2.054688 -1.5625 1.765625 -1.625 C 1.453125 -1.695312 1.1875 -1.769531 0.96875 -1.84375 C 0.757812 -1.925781 0.578125 -2.050781 0.421875 -2.21875 C 0.273438 -2.394531 0.203125 -2.628906 0.203125 -2.921875 C 0.203125 -3.179688 0.269531 -3.410156 0.40625 -3.609375 C 0.550781 -3.816406 0.757812 -3.976562 1.03125 -4.09375 C 1.3125 -4.21875 1.65625 -4.28125 2.0625 -4.28125 C 2.332031 -4.28125 2.601562 -4.25 2.875 -4.1875 C 3.144531 -4.125 3.378906 -4.035156 3.578125 -3.921875 L 3.21875 -3.03125 C 2.8125 -3.25 2.421875 -3.359375 2.046875 -3.359375 C 1.816406 -3.359375 1.644531 -3.320312 1.53125 -3.25 C 1.425781 -3.1875 1.375 -3.097656 1.375 -2.984375 C 1.375 -2.867188 1.4375 -2.78125 1.5625 -2.71875 C 1.695312 -2.664062 1.90625 -2.613281 2.1875 -2.5625 C 2.5 -2.488281 2.757812 -2.410156 2.96875 -2.328125 C 3.1875 -2.253906 3.367188 -2.128906 3.515625 -1.953125 C 3.671875 -1.785156 3.75 -1.554688 3.75 -1.265625 C 3.75 -1.015625 3.679688 -0.785156 3.546875 -0.578125 C 3.410156 -0.378906 3.203125 -0.21875 2.921875 -0.09375 C 2.640625 0.0195312 2.296875 0.078125 1.890625 0.078125 Z M 1.890625 0.078125 "/></g></g></g><g fill="#ffffff" fill-opacity="1"><g transform="translate(210.245071, 250.677392)"><g><path d="M 3.796875 -0.921875 L 3.796875 0 L 0.421875 0 L 0.421875 -4.203125 L 3.71875 -4.203125 L 3.71875 -3.28125 L 1.59375 -3.28125 L 1.59375 -2.578125 L 3.46875 -2.578125 L 3.46875 -1.6875 L 1.59375 -1.6875 L 1.59375 -0.921875 Z M 3.796875 -0.921875 "/></g></g></g><g fill="#ffffff" fill-opacity="1"><g transform="translate(215.327252, 250.677392)"><g><path d="M 2.25 -1.109375 L 1.609375 -1.109375 L 1.609375 0 L 0.421875 0 L 0.421875 -4.203125 L 2.34375 -4.203125 C 2.71875 -4.203125 3.046875 -4.140625 3.328125 -4.015625 C 3.609375 -3.890625 3.820312 -3.707031 3.96875 -3.46875 C 4.125 -3.238281 4.203125 -2.960938 4.203125 -2.640625 C 4.203125 -2.335938 4.128906 -2.070312 3.984375 -1.84375 C 3.847656 -1.625 3.648438 -1.445312 3.390625 -1.3125 L 4.296875 0 L 3.015625 0 Z M 3 -2.640625 C 3 -2.835938 2.9375 -2.988281 2.8125 -3.09375 C 2.695312 -3.207031 2.515625 -3.265625 2.265625 -3.265625 L 1.609375 -3.265625 L 1.609375 -2.03125 L 2.265625 -2.03125 C 2.515625 -2.03125 2.695312 -2.082031 2.8125 -2.1875 C 2.9375 -2.300781 3 -2.453125 3 -2.640625 Z M 3 -2.640625 "/></g></g></g><g fill="#ffffff" fill-opacity="1"><g transform="translate(220.81745, 250.677392)"><g><path d="M 4.6875 -4.203125 L 2.875 0 L 1.703125 0 L -0.078125 -4.203125 L 1.203125 -4.203125 L 2.34375 -1.46875 L 3.5 -4.203125 Z M 4.6875 -4.203125 "/></g></g></g><g fill="#ffffff" fill-opacity="1"><g transform="translate(226.463651, 250.677392)"><g><path d="M 0.421875 -4.203125 L 1.609375 -4.203125 L 1.609375 0 L 0.421875 0 Z M 0.421875 -4.203125 "/></g></g></g><g fill="#ffffff" fill-opacity="1"><g transform="translate(229.547755, 250.677392)"><g><path d="M 2.515625 0.078125 C 2.078125 0.078125 1.679688 -0.0078125 1.328125 -0.1875 C 0.972656 -0.375 0.695312 -0.632812 0.5 -0.96875 C 0.300781 -1.300781 0.203125 -1.675781 0.203125 -2.09375 C 0.203125 -2.519531 0.300781 -2.894531 0.5 -3.21875 C 0.695312 -3.550781 0.972656 -3.8125 1.328125 -4 C 1.679688 -4.1875 2.078125 -4.28125 2.515625 -4.28125 C 2.898438 -4.28125 3.242188 -4.210938 3.546875 -4.078125 C 3.859375 -3.941406 4.113281 -3.742188 4.3125 -3.484375 L 3.5625 -2.8125 C 3.289062 -3.132812 2.960938 -3.296875 2.578125 -3.296875 C 2.347656 -3.296875 2.144531 -3.242188 1.96875 -3.140625 C 1.789062 -3.046875 1.648438 -2.90625 1.546875 -2.71875 C 1.453125 -2.539062 1.40625 -2.332031 1.40625 -2.09375 C 1.40625 -1.863281 1.453125 -1.65625 1.546875 -1.46875 C 1.648438 -1.289062 1.789062 -1.148438 1.96875 -1.046875 C 2.144531 -0.953125 2.347656 -0.90625 2.578125 -0.90625 C 2.960938 -0.90625 3.289062 -1.066406 3.5625 -1.390625 L 4.3125 -0.703125 C 4.113281 -0.453125 3.859375 -0.257812 3.546875 -0.125 C 3.242188 0.0078125 2.898438 0.078125 2.515625 0.078125 Z M 2.515625 0.078125 "/></g></g></g><g fill="#ffffff" fill-opacity="1"><g transform="translate(235.025952, 250.677392)"><g><path d="M 3.796875 -0.921875 L 3.796875 0 L 0.421875 0 L 0.421875 -4.203125 L 3.71875 -4.203125 L 3.71875 -3.28125 L 1.59375 -3.28125 L 1.59375 -2.578125 L 3.46875 -2.578125 L 3.46875 -1.6875 L 1.59375 -1.6875 L 1.59375 -0.921875 Z M 3.796875 -0.921875 "/></g></g></g><g fill="#ffffff" fill-opacity="1"><g transform="translate(240.108133, 250.677392)"><g><path d="M 1.890625 0.078125 C 1.554688 0.078125 1.226562 0.0351562 0.90625 -0.046875 C 0.582031 -0.128906 0.320312 -0.238281 0.125 -0.375 L 0.515625 -1.25 C 0.703125 -1.125 0.921875 -1.023438 1.171875 -0.953125 C 1.421875 -0.878906 1.664062 -0.84375 1.90625 -0.84375 C 2.363281 -0.84375 2.59375 -0.957031 2.59375 -1.1875 C 2.59375 -1.300781 2.523438 -1.382812 2.390625 -1.4375 C 2.265625 -1.5 2.054688 -1.5625 1.765625 -1.625 C 1.453125 -1.695312 1.1875 -1.769531 0.96875 -1.84375 C 0.757812 -1.925781 0.578125 -2.050781 0.421875 -2.21875 C 0.273438 -2.394531 0.203125 -2.628906 0.203125 -2.921875 C 0.203125 -3.179688 0.269531 -3.410156 0.40625 -3.609375 C 0.550781 -3.816406 0.757812 -3.976562 1.03125 -4.09375 C 1.3125 -4.21875 1.65625 -4.28125 2.0625 -4.28125 C 2.332031 -4.28125 2.601562 -4.25 2.875 -4.1875 C 3.144531 -4.125 3.378906 -4.035156 3.578125 -3.921875 L 3.21875 -3.03125 C 2.8125 -3.25 2.421875 -3.359375 2.046875 -3.359375 C 1.816406 -3.359375 1.644531 -3.320312 1.53125 -3.25 C 1.425781 -3.1875 1.375 -3.097656 1.375 -2.984375 C 1.375 -2.867188 1.4375 -2.78125 1.5625 -2.71875 C 1.695312 -2.664062 1.90625 -2.613281 2.1875 -2.5625 C 2.5 -2.488281 2.757812 -2.410156 2.96875 -2.328125 C 3.1875 -2.253906 3.367188 -2.128906 3.515625 -1.953125 C 3.671875 -1.785156 3.75 -1.554688 3.75 -1.265625 C 3.75 -1.015625 3.679688 -0.785156 3.546875 -0.578125 C 3.410156 -0.378906 3.203125 -0.21875 2.921875 -0.09375 C 2.640625 0.0195312 2.296875 0.078125 1.890625 0.078125 Z M 1.890625 0.078125 "/></g></g></g></svg>